# xmcd
#
# Track frame offsets:
#	150
#	14310
#	30592
#	40027
#	58005
#	70975
#	86475
#	116522
#	158592
#	176552
#	180805
#	203200
#	213712
#	236765
#	261900
#	276072
#	292845
#	306350
#
# Disc length: 4218 seconds
#
# Revision: 2
# Processed by: cddbd v1.5.2PL0 Copyright (c) Steve Scherf et al.
# Submitted via: MusicWizard 7.2.0
#
DISCID=f6107812
DTITLE=Count Basie - The Complete Roulette Live Recordings - CD 4 (K)
DYEAR=1961
DGENRE=Big Band
TTITLE0=The Midnite Sun Never Sets
TTITLE1=The Moon Is Not Green
TTITLE2=There Will NEver Be Another You
TTITLE3=Make Me A Present Of You
TTITLE4=Allright, OK, You Win
TTITLE5=Basie
TTITLE6=Good Time Blues
TTITLE7=Segue In C
TTITLE8=Whirly-Bird
TTITLE9=One O'Clock Jump
TTITLE10=Blues Backstage
TTITLE11=Blee Blop Blues
TTITLE12=Corner Pocket
TTITLE13=Moten Swing
TTITLE14=It Won't Be Long
TTITLE15=Don't Worry 'Bout Me
TTITLE16=Don't Push, Don't Pull
TTITLE17=One O'Clock Jump
EXTD=
EXTT0=
EXTT1=
EXTT2=
EXTT3=
EXTT4=
EXTT5=
EXTT6=
EXTT7=
EXTT8=
EXTT9=
EXTT10=
EXTT11=
EXTT12=
EXTT13=
EXTT14=
EXTT15=
EXTT16=
EXTT17=
PLAYORDER=
